<mxfile host="app.diagrams.net" modified="2023-07-05T14:17:32.402Z" agent="Mozilla/5.0 (Windows NT 10.0; Win64; x64) AppleWebKit/537.36 (KHTML, like Gecko) Chrome/114.0.0.0 Safari/537.36 OPR/100.0.0.0" etag="cJddWo-mo52sjnPi1Pa1" version="21.6.1" type="google">
  <diagram name="PÃ¡gina-1" id="tGKLmrIo5PDmt_P_dmAY">
    <mxGraphModel grid="1" page="1" gridSize="10" guides="1" tooltips="1" connect="1" arrows="1" fold="1" pageScale="1" pageWidth="827" pageHeight="1169" math="0" shadow="0">
      <root>
        <mxCell id="0" />
        <mxCell id="1" parent="0" />
        <mxCell id="y5fUheF3tUzOyBfFli7F-5" style="edgeStyle=orthogonalEdgeStyle;rounded=0;orthogonalLoop=1;jettySize=auto;html=1;entryX=1;entryY=0.5;entryDx=0;entryDy=0;" edge="1" parent="1" source="y5fUheF3tUzOyBfFli7F-1" target="y5fUheF3tUzOyBfFli7F-3">
          <mxGeometry relative="1" as="geometry" />
        </mxCell>
        <mxCell id="y5fUheF3tUzOyBfFli7F-6" style="edgeStyle=orthogonalEdgeStyle;rounded=0;orthogonalLoop=1;jettySize=auto;html=1;entryX=1;entryY=0.5;entryDx=0;entryDy=0;" edge="1" parent="1" source="y5fUheF3tUzOyBfFli7F-1" target="y5fUheF3tUzOyBfFli7F-4">
          <mxGeometry relative="1" as="geometry" />
        </mxCell>
        <mxCell id="y5fUheF3tUzOyBfFli7F-7" style="edgeStyle=orthogonalEdgeStyle;rounded=0;orthogonalLoop=1;jettySize=auto;html=1;entryX=1;entryY=0.5;entryDx=0;entryDy=0;" edge="1" parent="1" source="y5fUheF3tUzOyBfFli7F-1" target="y5fUheF3tUzOyBfFli7F-11">
          <mxGeometry relative="1" as="geometry">
            <mxPoint x="240" y="340" as="targetPoint" />
          </mxGeometry>
        </mxCell>
        <mxCell id="y5fUheF3tUzOyBfFli7F-36" value="" style="edgeStyle=orthogonalEdgeStyle;rounded=0;orthogonalLoop=1;jettySize=auto;html=1;" edge="1" parent="1" source="y5fUheF3tUzOyBfFli7F-1" target="y5fUheF3tUzOyBfFli7F-34">
          <mxGeometry relative="1" as="geometry" />
        </mxCell>
        <mxCell id="y5fUheF3tUzOyBfFli7F-1" value="Usuarios" style="whiteSpace=wrap;html=1;align=center;" vertex="1" parent="1">
          <mxGeometry x="290" y="360" width="100" height="40" as="geometry" />
        </mxCell>
        <mxCell id="y5fUheF3tUzOyBfFli7F-3" value="Nombre" style="ellipse;whiteSpace=wrap;html=1;align=center;" vertex="1" parent="1">
          <mxGeometry x="130" y="360" width="100" height="40" as="geometry" />
        </mxCell>
        <mxCell id="y5fUheF3tUzOyBfFli7F-4" value="Direccion" style="ellipse;whiteSpace=wrap;html=1;align=center;" vertex="1" parent="1">
          <mxGeometry x="140" y="400" width="100" height="40" as="geometry" />
        </mxCell>
        <mxCell id="y5fUheF3tUzOyBfFli7F-58" style="edgeStyle=orthogonalEdgeStyle;rounded=0;orthogonalLoop=1;jettySize=auto;html=1;entryX=0.5;entryY=0;entryDx=0;entryDy=0;" edge="1" parent="1" source="y5fUheF3tUzOyBfFli7F-8" target="y5fUheF3tUzOyBfFli7F-10">
          <mxGeometry relative="1" as="geometry" />
        </mxCell>
        <mxCell id="y5fUheF3tUzOyBfFli7F-59" style="edgeStyle=orthogonalEdgeStyle;rounded=0;orthogonalLoop=1;jettySize=auto;html=1;entryX=0.5;entryY=0;entryDx=0;entryDy=0;" edge="1" parent="1" source="y5fUheF3tUzOyBfFli7F-8" target="y5fUheF3tUzOyBfFli7F-9">
          <mxGeometry relative="1" as="geometry" />
        </mxCell>
        <mxCell id="y5fUheF3tUzOyBfFli7F-65" value="" style="edgeStyle=orthogonalEdgeStyle;rounded=0;orthogonalLoop=1;jettySize=auto;html=1;" edge="1" parent="1" source="y5fUheF3tUzOyBfFli7F-8" target="y5fUheF3tUzOyBfFli7F-60">
          <mxGeometry relative="1" as="geometry" />
        </mxCell>
        <mxCell id="y5fUheF3tUzOyBfFli7F-8" value="Editorial" style="whiteSpace=wrap;html=1;align=center;" vertex="1" parent="1">
          <mxGeometry x="870" y="150" width="100" height="40" as="geometry" />
        </mxCell>
        <mxCell id="y5fUheF3tUzOyBfFli7F-9" value="Nombre&lt;br&gt;" style="ellipse;whiteSpace=wrap;html=1;align=center;" vertex="1" parent="1">
          <mxGeometry x="810" y="220" width="100" height="40" as="geometry" />
        </mxCell>
        <mxCell id="y5fUheF3tUzOyBfFli7F-10" value="NIT" style="ellipse;whiteSpace=wrap;html=1;align=center;fontStyle=4;" vertex="1" parent="1">
          <mxGeometry x="940" y="220" width="100" height="40" as="geometry" />
        </mxCell>
        <mxCell id="y5fUheF3tUzOyBfFli7F-11" value="ID" style="ellipse;whiteSpace=wrap;html=1;align=center;fontStyle=4;" vertex="1" parent="1">
          <mxGeometry x="140" y="320" width="100" height="40" as="geometry" />
        </mxCell>
        <mxCell id="y5fUheF3tUzOyBfFli7F-15" style="edgeStyle=orthogonalEdgeStyle;rounded=0;orthogonalLoop=1;jettySize=auto;html=1;entryX=1;entryY=0.5;entryDx=0;entryDy=0;" edge="1" parent="1" source="y5fUheF3tUzOyBfFli7F-12" target="y5fUheF3tUzOyBfFli7F-14">
          <mxGeometry relative="1" as="geometry" />
        </mxCell>
        <mxCell id="y5fUheF3tUzOyBfFli7F-18" value="" style="edgeStyle=orthogonalEdgeStyle;rounded=0;orthogonalLoop=1;jettySize=auto;html=1;" edge="1" parent="1" source="y5fUheF3tUzOyBfFli7F-12" target="y5fUheF3tUzOyBfFli7F-17">
          <mxGeometry relative="1" as="geometry" />
        </mxCell>
        <mxCell id="y5fUheF3tUzOyBfFli7F-19" value="" style="edgeStyle=orthogonalEdgeStyle;rounded=0;orthogonalLoop=1;jettySize=auto;html=1;" edge="1" parent="1" source="y5fUheF3tUzOyBfFli7F-12" target="y5fUheF3tUzOyBfFli7F-13">
          <mxGeometry relative="1" as="geometry" />
        </mxCell>
        <mxCell id="y5fUheF3tUzOyBfFli7F-12" value="Bibliotecas" style="whiteSpace=wrap;html=1;align=center;" vertex="1" parent="1">
          <mxGeometry x="550" y="-20" width="100" height="40" as="geometry" />
        </mxCell>
        <mxCell id="y5fUheF3tUzOyBfFli7F-25" value="" style="edgeStyle=orthogonalEdgeStyle;rounded=0;orthogonalLoop=1;jettySize=auto;html=1;" edge="1" parent="1" source="y5fUheF3tUzOyBfFli7F-13" target="y5fUheF3tUzOyBfFli7F-20">
          <mxGeometry relative="1" as="geometry" />
        </mxCell>
        <mxCell id="y5fUheF3tUzOyBfFli7F-13" value="Contiene" style="shape=rhombus;perimeter=rhombusPerimeter;whiteSpace=wrap;html=1;align=center;" vertex="1" parent="1">
          <mxGeometry x="540" y="60" width="120" height="60" as="geometry" />
        </mxCell>
        <mxCell id="y5fUheF3tUzOyBfFli7F-14" value="NIT" style="ellipse;whiteSpace=wrap;html=1;align=center;fontStyle=4;" vertex="1" parent="1">
          <mxGeometry x="414" y="-20" width="100" height="40" as="geometry" />
        </mxCell>
        <mxCell id="y5fUheF3tUzOyBfFli7F-17" value="Nombre" style="ellipse;whiteSpace=wrap;html=1;align=center;" vertex="1" parent="1">
          <mxGeometry x="690" y="-20" width="100" height="40" as="geometry" />
        </mxCell>
        <mxCell id="y5fUheF3tUzOyBfFli7F-31" style="edgeStyle=orthogonalEdgeStyle;rounded=0;orthogonalLoop=1;jettySize=auto;html=1;entryX=1;entryY=0.5;entryDx=0;entryDy=0;" edge="1" parent="1" source="y5fUheF3tUzOyBfFli7F-20" target="y5fUheF3tUzOyBfFli7F-29">
          <mxGeometry relative="1" as="geometry" />
        </mxCell>
        <mxCell id="y5fUheF3tUzOyBfFli7F-32" style="edgeStyle=orthogonalEdgeStyle;rounded=0;orthogonalLoop=1;jettySize=auto;html=1;entryX=1;entryY=0.5;entryDx=0;entryDy=0;" edge="1" parent="1" source="y5fUheF3tUzOyBfFli7F-20" target="y5fUheF3tUzOyBfFli7F-30">
          <mxGeometry relative="1" as="geometry" />
        </mxCell>
        <mxCell id="y5fUheF3tUzOyBfFli7F-33" style="edgeStyle=orthogonalEdgeStyle;rounded=0;orthogonalLoop=1;jettySize=auto;html=1;entryX=1;entryY=0.5;entryDx=0;entryDy=0;" edge="1" parent="1" source="y5fUheF3tUzOyBfFli7F-20" target="y5fUheF3tUzOyBfFli7F-27">
          <mxGeometry relative="1" as="geometry" />
        </mxCell>
        <mxCell id="y5fUheF3tUzOyBfFli7F-44" style="edgeStyle=orthogonalEdgeStyle;rounded=0;orthogonalLoop=1;jettySize=auto;html=1;entryX=1;entryY=0.5;entryDx=0;entryDy=0;" edge="1" parent="1" source="y5fUheF3tUzOyBfFli7F-20" target="y5fUheF3tUzOyBfFli7F-43">
          <mxGeometry relative="1" as="geometry" />
        </mxCell>
        <mxCell id="y5fUheF3tUzOyBfFli7F-20" value="Libros" style="whiteSpace=wrap;html=1;align=center;" vertex="1" parent="1">
          <mxGeometry x="550" y="150" width="100" height="40" as="geometry" />
        </mxCell>
        <mxCell id="y5fUheF3tUzOyBfFli7F-23" value="" style="edgeStyle=orthogonalEdgeStyle;rounded=0;orthogonalLoop=1;jettySize=auto;html=1;" edge="1" parent="1" source="y5fUheF3tUzOyBfFli7F-21" target="y5fUheF3tUzOyBfFli7F-22">
          <mxGeometry relative="1" as="geometry" />
        </mxCell>
        <mxCell id="y5fUheF3tUzOyBfFli7F-56" value="" style="edgeStyle=orthogonalEdgeStyle;rounded=0;orthogonalLoop=1;jettySize=auto;html=1;" edge="1" parent="1" source="y5fUheF3tUzOyBfFli7F-21" target="y5fUheF3tUzOyBfFli7F-55">
          <mxGeometry relative="1" as="geometry" />
        </mxCell>
        <mxCell id="y5fUheF3tUzOyBfFli7F-57" value="" style="edgeStyle=orthogonalEdgeStyle;rounded=0;orthogonalLoop=1;jettySize=auto;html=1;" edge="1" parent="1" source="y5fUheF3tUzOyBfFli7F-21" target="y5fUheF3tUzOyBfFli7F-54">
          <mxGeometry relative="1" as="geometry" />
        </mxCell>
        <mxCell id="y5fUheF3tUzOyBfFli7F-21" value="Autores" style="whiteSpace=wrap;html=1;align=center;" vertex="1" parent="1">
          <mxGeometry x="1190" y="150" width="100" height="40" as="geometry" />
        </mxCell>
        <mxCell id="y5fUheF3tUzOyBfFli7F-64" style="edgeStyle=orthogonalEdgeStyle;rounded=0;orthogonalLoop=1;jettySize=auto;html=1;entryX=1;entryY=0.5;entryDx=0;entryDy=0;" edge="1" parent="1" source="y5fUheF3tUzOyBfFli7F-22" target="y5fUheF3tUzOyBfFli7F-8">
          <mxGeometry relative="1" as="geometry" />
        </mxCell>
        <mxCell id="y5fUheF3tUzOyBfFli7F-22" value="Envia" style="shape=rhombus;perimeter=rhombusPerimeter;whiteSpace=wrap;html=1;align=center;" vertex="1" parent="1">
          <mxGeometry x="1020" y="140" width="120" height="60" as="geometry" />
        </mxCell>
        <mxCell id="y5fUheF3tUzOyBfFli7F-27" value="Paginas" style="ellipse;whiteSpace=wrap;html=1;align=center;" vertex="1" parent="1">
          <mxGeometry x="370.5" y="190" width="100" height="40" as="geometry" />
        </mxCell>
        <mxCell id="y5fUheF3tUzOyBfFli7F-29" value="Titulo" style="ellipse;whiteSpace=wrap;html=1;align=center;" vertex="1" parent="1">
          <mxGeometry x="356.5" y="150" width="100" height="40" as="geometry" />
        </mxCell>
        <mxCell id="y5fUheF3tUzOyBfFli7F-30" value="Codigo" style="ellipse;whiteSpace=wrap;html=1;align=center;fontStyle=4;" vertex="1" parent="1">
          <mxGeometry x="370.5" y="110" width="100" height="40" as="geometry" />
        </mxCell>
        <mxCell id="y5fUheF3tUzOyBfFli7F-40" value="" style="edgeStyle=orthogonalEdgeStyle;rounded=0;orthogonalLoop=1;jettySize=auto;html=1;entryX=0;entryY=0.5;entryDx=0;entryDy=0;" edge="1" parent="1" source="y5fUheF3tUzOyBfFli7F-34" target="y5fUheF3tUzOyBfFli7F-41">
          <mxGeometry relative="1" as="geometry">
            <mxPoint x="550" y="380" as="targetPoint" />
          </mxGeometry>
        </mxCell>
        <mxCell id="y5fUheF3tUzOyBfFli7F-34" value="Realiza" style="shape=rhombus;perimeter=rhombusPerimeter;whiteSpace=wrap;html=1;align=center;" vertex="1" parent="1">
          <mxGeometry x="410" y="350" width="120" height="60" as="geometry" />
        </mxCell>
        <mxCell id="y5fUheF3tUzOyBfFli7F-53" style="edgeStyle=orthogonalEdgeStyle;rounded=0;orthogonalLoop=1;jettySize=auto;html=1;entryX=0.5;entryY=1;entryDx=0;entryDy=0;" edge="1" parent="1" source="y5fUheF3tUzOyBfFli7F-41" target="y5fUheF3tUzOyBfFli7F-20">
          <mxGeometry relative="1" as="geometry" />
        </mxCell>
        <mxCell id="y5fUheF3tUzOyBfFli7F-69" value="" style="edgeStyle=orthogonalEdgeStyle;rounded=0;orthogonalLoop=1;jettySize=auto;html=1;" edge="1" parent="1" source="y5fUheF3tUzOyBfFli7F-41" target="y5fUheF3tUzOyBfFli7F-66">
          <mxGeometry relative="1" as="geometry" />
        </mxCell>
        <mxCell id="y5fUheF3tUzOyBfFli7F-70" value="" style="edgeStyle=orthogonalEdgeStyle;rounded=0;orthogonalLoop=1;jettySize=auto;html=1;" edge="1" parent="1" source="y5fUheF3tUzOyBfFli7F-41" target="y5fUheF3tUzOyBfFli7F-68">
          <mxGeometry relative="1" as="geometry" />
        </mxCell>
        <mxCell id="y5fUheF3tUzOyBfFli7F-41" value="Prestamo" style="shape=ext;margin=3;double=1;whiteSpace=wrap;html=1;align=center;" vertex="1" parent="1">
          <mxGeometry x="550" y="360" width="100" height="40" as="geometry" />
        </mxCell>
        <mxCell id="y5fUheF3tUzOyBfFli7F-46" value="" style="edgeStyle=orthogonalEdgeStyle;rounded=0;orthogonalLoop=1;jettySize=auto;html=1;" edge="1" parent="1" source="y5fUheF3tUzOyBfFli7F-43" target="y5fUheF3tUzOyBfFli7F-45">
          <mxGeometry relative="1" as="geometry" />
        </mxCell>
        <mxCell id="y5fUheF3tUzOyBfFli7F-43" value="Tiene" style="shape=rhombus;perimeter=rhombusPerimeter;whiteSpace=wrap;html=1;align=center;" vertex="1" parent="1">
          <mxGeometry x="350.5" y="240" width="120" height="60" as="geometry" />
        </mxCell>
        <mxCell id="y5fUheF3tUzOyBfFli7F-49" value="" style="edgeStyle=orthogonalEdgeStyle;rounded=0;orthogonalLoop=1;jettySize=auto;html=1;" edge="1" parent="1" source="y5fUheF3tUzOyBfFli7F-45" target="y5fUheF3tUzOyBfFli7F-47">
          <mxGeometry relative="1" as="geometry" />
        </mxCell>
        <mxCell id="y5fUheF3tUzOyBfFli7F-50" value="" style="edgeStyle=orthogonalEdgeStyle;rounded=0;orthogonalLoop=1;jettySize=auto;html=1;" edge="1" parent="1" source="y5fUheF3tUzOyBfFli7F-45" target="y5fUheF3tUzOyBfFli7F-48">
          <mxGeometry relative="1" as="geometry" />
        </mxCell>
        <mxCell id="y5fUheF3tUzOyBfFli7F-52" style="edgeStyle=orthogonalEdgeStyle;rounded=0;orthogonalLoop=1;jettySize=auto;html=1;entryX=0.5;entryY=1;entryDx=0;entryDy=0;" edge="1" parent="1" source="y5fUheF3tUzOyBfFli7F-45" target="y5fUheF3tUzOyBfFli7F-51">
          <mxGeometry relative="1" as="geometry" />
        </mxCell>
        <mxCell id="y5fUheF3tUzOyBfFli7F-45" value="Categoria" style="whiteSpace=wrap;html=1;align=center;" vertex="1" parent="1">
          <mxGeometry x="210" y="250" width="100" height="40" as="geometry" />
        </mxCell>
        <mxCell id="y5fUheF3tUzOyBfFli7F-47" value="&lt;span style=&quot;border-bottom: 1px dotted&quot;&gt;ID&lt;/span&gt;" style="ellipse;whiteSpace=wrap;html=1;align=center;" vertex="1" parent="1">
          <mxGeometry x="60" y="250" width="100" height="40" as="geometry" />
        </mxCell>
        <mxCell id="y5fUheF3tUzOyBfFli7F-48" value="Nombre" style="ellipse;whiteSpace=wrap;html=1;align=center;" vertex="1" parent="1">
          <mxGeometry x="256.5" y="170" width="100" height="40" as="geometry" />
        </mxCell>
        <mxCell id="y5fUheF3tUzOyBfFli7F-51" value="Tiempo de prestamo" style="ellipse;whiteSpace=wrap;html=1;align=center;" vertex="1" parent="1">
          <mxGeometry x="160" y="170" width="100" height="40" as="geometry" />
        </mxCell>
        <mxCell id="y5fUheF3tUzOyBfFli7F-54" value="ID" style="ellipse;whiteSpace=wrap;html=1;align=center;fontStyle=4;" vertex="1" parent="1">
          <mxGeometry x="1190" y="80" width="100" height="40" as="geometry" />
        </mxCell>
        <mxCell id="y5fUheF3tUzOyBfFli7F-55" value="Nombre" style="ellipse;whiteSpace=wrap;html=1;align=center;" vertex="1" parent="1">
          <mxGeometry x="1190" y="220" width="100" height="40" as="geometry" />
        </mxCell>
        <mxCell id="y5fUheF3tUzOyBfFli7F-63" value="" style="edgeStyle=orthogonalEdgeStyle;rounded=0;orthogonalLoop=1;jettySize=auto;html=1;" edge="1" parent="1" source="y5fUheF3tUzOyBfFli7F-60" target="y5fUheF3tUzOyBfFli7F-20">
          <mxGeometry relative="1" as="geometry" />
        </mxCell>
        <mxCell id="y5fUheF3tUzOyBfFli7F-60" value="Publica" style="shape=rhombus;perimeter=rhombusPerimeter;whiteSpace=wrap;html=1;align=center;" vertex="1" parent="1">
          <mxGeometry x="707" y="140" width="120" height="60" as="geometry" />
        </mxCell>
        <mxCell id="y5fUheF3tUzOyBfFli7F-66" value="ID" style="ellipse;whiteSpace=wrap;html=1;align=center;fontStyle=4;" vertex="1" parent="1">
          <mxGeometry x="680" y="360" width="100" height="40" as="geometry" />
        </mxCell>
        <mxCell id="y5fUheF3tUzOyBfFli7F-68" value="Fecha de prestamo" style="ellipse;whiteSpace=wrap;html=1;align=center;" vertex="1" parent="1">
          <mxGeometry x="550" y="420" width="100" height="40" as="geometry" />
        </mxCell>
        <mxCell id="y5fUheF3tUzOyBfFli7F-71" style="edgeStyle=orthogonalEdgeStyle;rounded=0;orthogonalLoop=1;jettySize=auto;html=1;entryX=1;entryY=0.5;entryDx=0;entryDy=0;" edge="1" parent="1" source="y5fUheF3tUzOyBfFli7F-75" target="y5fUheF3tUzOyBfFli7F-76">
          <mxGeometry relative="1" as="geometry" />
        </mxCell>
        <mxCell id="y5fUheF3tUzOyBfFli7F-72" style="edgeStyle=orthogonalEdgeStyle;rounded=0;orthogonalLoop=1;jettySize=auto;html=1;entryX=1;entryY=0.5;entryDx=0;entryDy=0;" edge="1" parent="1" source="y5fUheF3tUzOyBfFli7F-75" target="y5fUheF3tUzOyBfFli7F-77">
          <mxGeometry relative="1" as="geometry" />
        </mxCell>
        <mxCell id="y5fUheF3tUzOyBfFli7F-73" style="edgeStyle=orthogonalEdgeStyle;rounded=0;orthogonalLoop=1;jettySize=auto;html=1;entryX=1;entryY=0.5;entryDx=0;entryDy=0;" edge="1" parent="1" source="y5fUheF3tUzOyBfFli7F-75" target="y5fUheF3tUzOyBfFli7F-84">
          <mxGeometry relative="1" as="geometry">
            <mxPoint x="191" y="940" as="targetPoint" />
          </mxGeometry>
        </mxCell>
        <mxCell id="y5fUheF3tUzOyBfFli7F-74" value="" style="edgeStyle=orthogonalEdgeStyle;rounded=0;orthogonalLoop=1;jettySize=auto;html=1;" edge="1" parent="1" source="y5fUheF3tUzOyBfFli7F-75" target="y5fUheF3tUzOyBfFli7F-108">
          <mxGeometry relative="1" as="geometry" />
        </mxCell>
        <mxCell id="y5fUheF3tUzOyBfFli7F-129" style="edgeStyle=orthogonalEdgeStyle;rounded=0;orthogonalLoop=1;jettySize=auto;html=1;entryX=1;entryY=0.5;entryDx=0;entryDy=0;" edge="1" parent="1" source="y5fUheF3tUzOyBfFli7F-75" target="y5fUheF3tUzOyBfFli7F-128">
          <mxGeometry relative="1" as="geometry" />
        </mxCell>
        <mxCell id="y5fUheF3tUzOyBfFli7F-159" value="" style="edgeStyle=orthogonalEdgeStyle;rounded=0;orthogonalLoop=1;jettySize=auto;html=1;" edge="1" parent="1" source="y5fUheF3tUzOyBfFli7F-75" target="y5fUheF3tUzOyBfFli7F-146">
          <mxGeometry relative="1" as="geometry" />
        </mxCell>
        <mxCell id="y5fUheF3tUzOyBfFli7F-75" value="Usuarios" style="whiteSpace=wrap;html=1;align=center;" vertex="1" parent="1">
          <mxGeometry x="240" y="960" width="100" height="40" as="geometry" />
        </mxCell>
        <mxCell id="y5fUheF3tUzOyBfFli7F-76" value="Nombre" style="ellipse;whiteSpace=wrap;html=1;align=center;" vertex="1" parent="1">
          <mxGeometry x="81" y="940" width="100" height="40" as="geometry" />
        </mxCell>
        <mxCell id="y5fUheF3tUzOyBfFli7F-77" value="Direccion" style="ellipse;whiteSpace=wrap;html=1;align=center;" vertex="1" parent="1">
          <mxGeometry x="81" y="980" width="100" height="40" as="geometry" />
        </mxCell>
        <mxCell id="y5fUheF3tUzOyBfFli7F-78" style="edgeStyle=orthogonalEdgeStyle;rounded=0;orthogonalLoop=1;jettySize=auto;html=1;entryX=0.5;entryY=0;entryDx=0;entryDy=0;" edge="1" parent="1" source="y5fUheF3tUzOyBfFli7F-81" target="y5fUheF3tUzOyBfFli7F-83">
          <mxGeometry relative="1" as="geometry" />
        </mxCell>
        <mxCell id="y5fUheF3tUzOyBfFli7F-79" style="edgeStyle=orthogonalEdgeStyle;rounded=0;orthogonalLoop=1;jettySize=auto;html=1;entryX=0.5;entryY=0;entryDx=0;entryDy=0;" edge="1" parent="1" source="y5fUheF3tUzOyBfFli7F-81" target="y5fUheF3tUzOyBfFli7F-82">
          <mxGeometry relative="1" as="geometry" />
        </mxCell>
        <mxCell id="y5fUheF3tUzOyBfFli7F-80" value="" style="edgeStyle=orthogonalEdgeStyle;rounded=0;orthogonalLoop=1;jettySize=auto;html=1;" edge="1" parent="1" source="y5fUheF3tUzOyBfFli7F-81" target="y5fUheF3tUzOyBfFli7F-125">
          <mxGeometry relative="1" as="geometry" />
        </mxCell>
        <mxCell id="y5fUheF3tUzOyBfFli7F-81" value="Actores" style="whiteSpace=wrap;html=1;align=center;" vertex="1" parent="1">
          <mxGeometry x="790" y="830" width="100" height="40" as="geometry" />
        </mxCell>
        <mxCell id="y5fUheF3tUzOyBfFli7F-82" value="Nombre&lt;br&gt;" style="ellipse;whiteSpace=wrap;html=1;align=center;" vertex="1" parent="1">
          <mxGeometry x="727" y="900" width="100" height="40" as="geometry" />
        </mxCell>
        <mxCell id="y5fUheF3tUzOyBfFli7F-83" value="NIT" style="ellipse;whiteSpace=wrap;html=1;align=center;fontStyle=4;" vertex="1" parent="1">
          <mxGeometry x="850" y="900" width="100" height="40" as="geometry" />
        </mxCell>
        <mxCell id="y5fUheF3tUzOyBfFli7F-84" value="ID" style="ellipse;whiteSpace=wrap;html=1;align=center;fontStyle=4;" vertex="1" parent="1">
          <mxGeometry x="81" y="900" width="100" height="40" as="geometry" />
        </mxCell>
        <mxCell id="y5fUheF3tUzOyBfFli7F-85" style="edgeStyle=orthogonalEdgeStyle;rounded=0;orthogonalLoop=1;jettySize=auto;html=1;entryX=1;entryY=0.5;entryDx=0;entryDy=0;" edge="1" parent="1" source="y5fUheF3tUzOyBfFli7F-88" target="y5fUheF3tUzOyBfFli7F-91">
          <mxGeometry relative="1" as="geometry" />
        </mxCell>
        <mxCell id="y5fUheF3tUzOyBfFli7F-86" value="" style="edgeStyle=orthogonalEdgeStyle;rounded=0;orthogonalLoop=1;jettySize=auto;html=1;" edge="1" parent="1" source="y5fUheF3tUzOyBfFli7F-88" target="y5fUheF3tUzOyBfFli7F-92">
          <mxGeometry relative="1" as="geometry" />
        </mxCell>
        <mxCell id="y5fUheF3tUzOyBfFli7F-87" value="" style="edgeStyle=orthogonalEdgeStyle;rounded=0;orthogonalLoop=1;jettySize=auto;html=1;" edge="1" parent="1" source="y5fUheF3tUzOyBfFli7F-88" target="y5fUheF3tUzOyBfFli7F-90">
          <mxGeometry relative="1" as="geometry" />
        </mxCell>
        <mxCell id="y5fUheF3tUzOyBfFli7F-88" value="Tienda" style="whiteSpace=wrap;html=1;align=center;" vertex="1" parent="1">
          <mxGeometry x="501" y="580" width="100" height="40" as="geometry" />
        </mxCell>
        <mxCell id="y5fUheF3tUzOyBfFli7F-89" value="" style="edgeStyle=orthogonalEdgeStyle;rounded=0;orthogonalLoop=1;jettySize=auto;html=1;" edge="1" parent="1" source="y5fUheF3tUzOyBfFli7F-90" target="y5fUheF3tUzOyBfFli7F-97">
          <mxGeometry relative="1" as="geometry" />
        </mxCell>
        <mxCell id="y5fUheF3tUzOyBfFli7F-90" value="Contiene" style="shape=rhombus;perimeter=rhombusPerimeter;whiteSpace=wrap;html=1;align=center;" vertex="1" parent="1">
          <mxGeometry x="491" y="660" width="120" height="60" as="geometry" />
        </mxCell>
        <mxCell id="y5fUheF3tUzOyBfFli7F-91" value="NIT" style="ellipse;whiteSpace=wrap;html=1;align=center;fontStyle=4;" vertex="1" parent="1">
          <mxGeometry x="365" y="580" width="100" height="40" as="geometry" />
        </mxCell>
        <mxCell id="y5fUheF3tUzOyBfFli7F-92" value="Nombre" style="ellipse;whiteSpace=wrap;html=1;align=center;" vertex="1" parent="1">
          <mxGeometry x="641" y="580" width="100" height="40" as="geometry" />
        </mxCell>
        <mxCell id="y5fUheF3tUzOyBfFli7F-93" style="edgeStyle=orthogonalEdgeStyle;rounded=0;orthogonalLoop=1;jettySize=auto;html=1;entryX=1;entryY=0.5;entryDx=0;entryDy=0;" edge="1" parent="1" source="y5fUheF3tUzOyBfFli7F-97" target="y5fUheF3tUzOyBfFli7F-105">
          <mxGeometry relative="1" as="geometry" />
        </mxCell>
        <mxCell id="y5fUheF3tUzOyBfFli7F-94" style="edgeStyle=orthogonalEdgeStyle;rounded=0;orthogonalLoop=1;jettySize=auto;html=1;entryX=1;entryY=0.5;entryDx=0;entryDy=0;" edge="1" parent="1" source="y5fUheF3tUzOyBfFli7F-97" target="y5fUheF3tUzOyBfFli7F-106">
          <mxGeometry relative="1" as="geometry" />
        </mxCell>
        <mxCell id="y5fUheF3tUzOyBfFli7F-95" style="edgeStyle=orthogonalEdgeStyle;rounded=0;orthogonalLoop=1;jettySize=auto;html=1;entryX=1;entryY=0.5;entryDx=0;entryDy=0;" edge="1" parent="1" source="y5fUheF3tUzOyBfFli7F-97" target="y5fUheF3tUzOyBfFli7F-104">
          <mxGeometry relative="1" as="geometry" />
        </mxCell>
        <mxCell id="y5fUheF3tUzOyBfFli7F-96" style="edgeStyle=orthogonalEdgeStyle;rounded=0;orthogonalLoop=1;jettySize=auto;html=1;entryX=1;entryY=0.5;entryDx=0;entryDy=0;" edge="1" parent="1" source="y5fUheF3tUzOyBfFli7F-97" target="y5fUheF3tUzOyBfFli7F-114">
          <mxGeometry relative="1" as="geometry">
            <Array as="points">
              <mxPoint x="480" y="770" />
              <mxPoint x="480" y="870" />
            </Array>
          </mxGeometry>
        </mxCell>
        <mxCell id="y5fUheF3tUzOyBfFli7F-131" style="edgeStyle=orthogonalEdgeStyle;rounded=0;orthogonalLoop=1;jettySize=auto;html=1;entryX=1;entryY=0.5;entryDx=0;entryDy=0;" edge="1" parent="1" source="y5fUheF3tUzOyBfFli7F-97" target="y5fUheF3tUzOyBfFli7F-130">
          <mxGeometry relative="1" as="geometry" />
        </mxCell>
        <mxCell id="y5fUheF3tUzOyBfFli7F-134" style="edgeStyle=orthogonalEdgeStyle;rounded=0;orthogonalLoop=1;jettySize=auto;html=1;entryX=1;entryY=0.5;entryDx=0;entryDy=0;" edge="1" parent="1" source="y5fUheF3tUzOyBfFli7F-97" target="y5fUheF3tUzOyBfFli7F-132">
          <mxGeometry relative="1" as="geometry" />
        </mxCell>
        <mxCell id="y5fUheF3tUzOyBfFli7F-97" value="Peliculas" style="whiteSpace=wrap;html=1;align=center;" vertex="1" parent="1">
          <mxGeometry x="500" y="750" width="100" height="40" as="geometry" />
        </mxCell>
        <mxCell id="y5fUheF3tUzOyBfFli7F-98" value="" style="edgeStyle=orthogonalEdgeStyle;rounded=0;orthogonalLoop=1;jettySize=auto;html=1;" edge="1" parent="1" source="y5fUheF3tUzOyBfFli7F-101" target="y5fUheF3tUzOyBfFli7F-103">
          <mxGeometry relative="1" as="geometry" />
        </mxCell>
        <mxCell id="y5fUheF3tUzOyBfFli7F-99" value="" style="edgeStyle=orthogonalEdgeStyle;rounded=0;orthogonalLoop=1;jettySize=auto;html=1;" edge="1" parent="1" source="y5fUheF3tUzOyBfFli7F-101" target="y5fUheF3tUzOyBfFli7F-123">
          <mxGeometry relative="1" as="geometry" />
        </mxCell>
        <mxCell id="y5fUheF3tUzOyBfFli7F-100" value="" style="edgeStyle=orthogonalEdgeStyle;rounded=0;orthogonalLoop=1;jettySize=auto;html=1;" edge="1" parent="1" source="y5fUheF3tUzOyBfFli7F-101" target="y5fUheF3tUzOyBfFli7F-122">
          <mxGeometry relative="1" as="geometry" />
        </mxCell>
        <mxCell id="y5fUheF3tUzOyBfFli7F-140" value="" style="edgeStyle=orthogonalEdgeStyle;rounded=0;orthogonalLoop=1;jettySize=auto;html=1;" edge="1" parent="1" source="y5fUheF3tUzOyBfFli7F-101" target="y5fUheF3tUzOyBfFli7F-138">
          <mxGeometry relative="1" as="geometry" />
        </mxCell>
        <mxCell id="y5fUheF3tUzOyBfFli7F-101" value="Directores" style="whiteSpace=wrap;html=1;align=center;" vertex="1" parent="1">
          <mxGeometry x="790" y="680" width="100" height="40" as="geometry" />
        </mxCell>
        <mxCell id="y5fUheF3tUzOyBfFli7F-141" style="edgeStyle=orthogonalEdgeStyle;rounded=0;orthogonalLoop=1;jettySize=auto;html=1;entryX=1;entryY=0.5;entryDx=0;entryDy=0;" edge="1" parent="1" source="y5fUheF3tUzOyBfFli7F-103" target="y5fUheF3tUzOyBfFli7F-97">
          <mxGeometry relative="1" as="geometry" />
        </mxCell>
        <mxCell id="y5fUheF3tUzOyBfFli7F-103" value="Dirige" style="shape=rhombus;perimeter=rhombusPerimeter;whiteSpace=wrap;html=1;align=center;" vertex="1" parent="1">
          <mxGeometry x="641" y="670" width="120" height="60" as="geometry" />
        </mxCell>
        <mxCell id="y5fUheF3tUzOyBfFli7F-104" value="Idioma" style="ellipse;whiteSpace=wrap;html=1;align=center;" vertex="1" parent="1">
          <mxGeometry x="311.5" y="750" width="100" height="40" as="geometry" />
        </mxCell>
        <mxCell id="y5fUheF3tUzOyBfFli7F-105" value="Titulo" style="ellipse;whiteSpace=wrap;html=1;align=center;" vertex="1" parent="1">
          <mxGeometry x="314" y="710" width="100" height="40" as="geometry" />
        </mxCell>
        <mxCell id="y5fUheF3tUzOyBfFli7F-106" value="Codigo" style="ellipse;whiteSpace=wrap;html=1;align=center;fontStyle=4;" vertex="1" parent="1">
          <mxGeometry x="314" y="670" width="100" height="40" as="geometry" />
        </mxCell>
        <mxCell id="y5fUheF3tUzOyBfFli7F-107" value="" style="edgeStyle=orthogonalEdgeStyle;rounded=0;orthogonalLoop=1;jettySize=auto;html=1;entryX=0;entryY=0.5;entryDx=0;entryDy=0;" edge="1" parent="1" source="y5fUheF3tUzOyBfFli7F-108" target="y5fUheF3tUzOyBfFli7F-112">
          <mxGeometry relative="1" as="geometry">
            <mxPoint x="501" y="980" as="targetPoint" />
          </mxGeometry>
        </mxCell>
        <mxCell id="y5fUheF3tUzOyBfFli7F-108" value="Realiza" style="shape=rhombus;perimeter=rhombusPerimeter;whiteSpace=wrap;html=1;align=center;" vertex="1" parent="1">
          <mxGeometry x="361" y="950" width="120" height="60" as="geometry" />
        </mxCell>
        <mxCell id="y5fUheF3tUzOyBfFli7F-109" style="edgeStyle=orthogonalEdgeStyle;rounded=0;orthogonalLoop=1;jettySize=auto;html=1;entryX=0.5;entryY=1;entryDx=0;entryDy=0;" edge="1" parent="1" source="y5fUheF3tUzOyBfFli7F-112" target="y5fUheF3tUzOyBfFli7F-97">
          <mxGeometry relative="1" as="geometry" />
        </mxCell>
        <mxCell id="y5fUheF3tUzOyBfFli7F-110" value="" style="edgeStyle=orthogonalEdgeStyle;rounded=0;orthogonalLoop=1;jettySize=auto;html=1;" edge="1" parent="1" source="y5fUheF3tUzOyBfFli7F-112" target="y5fUheF3tUzOyBfFli7F-126">
          <mxGeometry relative="1" as="geometry" />
        </mxCell>
        <mxCell id="y5fUheF3tUzOyBfFli7F-143" style="edgeStyle=orthogonalEdgeStyle;rounded=0;orthogonalLoop=1;jettySize=auto;html=1;entryX=1;entryY=0.5;entryDx=0;entryDy=0;" edge="1" parent="1" source="y5fUheF3tUzOyBfFli7F-112" target="y5fUheF3tUzOyBfFli7F-127">
          <mxGeometry relative="1" as="geometry" />
        </mxCell>
        <mxCell id="y5fUheF3tUzOyBfFli7F-144" style="edgeStyle=orthogonalEdgeStyle;rounded=0;orthogonalLoop=1;jettySize=auto;html=1;entryX=1;entryY=0.5;entryDx=0;entryDy=0;" edge="1" parent="1" source="y5fUheF3tUzOyBfFli7F-112" target="y5fUheF3tUzOyBfFli7F-142">
          <mxGeometry relative="1" as="geometry" />
        </mxCell>
        <mxCell id="y5fUheF3tUzOyBfFli7F-163" style="edgeStyle=orthogonalEdgeStyle;rounded=0;orthogonalLoop=1;jettySize=auto;html=1;entryX=0;entryY=0.5;entryDx=0;entryDy=0;" edge="1" parent="1" source="y5fUheF3tUzOyBfFli7F-112" target="y5fUheF3tUzOyBfFli7F-162">
          <mxGeometry relative="1" as="geometry" />
        </mxCell>
        <mxCell id="y5fUheF3tUzOyBfFli7F-112" value="Prestamo" style="shape=ext;margin=3;double=1;whiteSpace=wrap;html=1;align=center;" vertex="1" parent="1">
          <mxGeometry x="501" y="960" width="100" height="40" as="geometry" />
        </mxCell>
        <mxCell id="y5fUheF3tUzOyBfFli7F-113" value="" style="edgeStyle=orthogonalEdgeStyle;rounded=0;orthogonalLoop=1;jettySize=auto;html=1;" edge="1" parent="1" source="y5fUheF3tUzOyBfFli7F-114" target="y5fUheF3tUzOyBfFli7F-118">
          <mxGeometry relative="1" as="geometry" />
        </mxCell>
        <mxCell id="y5fUheF3tUzOyBfFli7F-114" value="Tiene" style="shape=rhombus;perimeter=rhombusPerimeter;whiteSpace=wrap;html=1;align=center;" vertex="1" parent="1">
          <mxGeometry x="301.5" y="840" width="120" height="60" as="geometry" />
        </mxCell>
        <mxCell id="y5fUheF3tUzOyBfFli7F-115" value="" style="edgeStyle=orthogonalEdgeStyle;rounded=0;orthogonalLoop=1;jettySize=auto;html=1;" edge="1" parent="1" source="y5fUheF3tUzOyBfFli7F-118" target="y5fUheF3tUzOyBfFli7F-119">
          <mxGeometry relative="1" as="geometry" />
        </mxCell>
        <mxCell id="y5fUheF3tUzOyBfFli7F-116" value="" style="edgeStyle=orthogonalEdgeStyle;rounded=0;orthogonalLoop=1;jettySize=auto;html=1;" edge="1" parent="1" source="y5fUheF3tUzOyBfFli7F-118" target="y5fUheF3tUzOyBfFli7F-120">
          <mxGeometry relative="1" as="geometry" />
        </mxCell>
        <mxCell id="y5fUheF3tUzOyBfFli7F-117" style="edgeStyle=orthogonalEdgeStyle;rounded=0;orthogonalLoop=1;jettySize=auto;html=1;entryX=0.5;entryY=1;entryDx=0;entryDy=0;" edge="1" parent="1" source="y5fUheF3tUzOyBfFli7F-118" target="y5fUheF3tUzOyBfFli7F-121">
          <mxGeometry relative="1" as="geometry" />
        </mxCell>
        <mxCell id="y5fUheF3tUzOyBfFli7F-118" value="Formato" style="whiteSpace=wrap;html=1;align=center;" vertex="1" parent="1">
          <mxGeometry x="161" y="850" width="100" height="40" as="geometry" />
        </mxCell>
        <mxCell id="y5fUheF3tUzOyBfFli7F-119" value="&lt;span style=&quot;border-bottom: 1px dotted&quot;&gt;ID&lt;/span&gt;" style="ellipse;whiteSpace=wrap;html=1;align=center;" vertex="1" parent="1">
          <mxGeometry x="40" y="850" width="100" height="40" as="geometry" />
        </mxCell>
        <mxCell id="y5fUheF3tUzOyBfFli7F-120" value="Nombre" style="ellipse;whiteSpace=wrap;html=1;align=center;" vertex="1" parent="1">
          <mxGeometry x="207.5" y="770" width="100" height="40" as="geometry" />
        </mxCell>
        <mxCell id="y5fUheF3tUzOyBfFli7F-121" value="Tiempo de prestamo" style="ellipse;whiteSpace=wrap;html=1;align=center;" vertex="1" parent="1">
          <mxGeometry x="107.5" y="770" width="100" height="40" as="geometry" />
        </mxCell>
        <mxCell id="y5fUheF3tUzOyBfFli7F-122" value="ID" style="ellipse;whiteSpace=wrap;html=1;align=center;fontStyle=4;" vertex="1" parent="1">
          <mxGeometry x="790" y="610" width="100" height="40" as="geometry" />
        </mxCell>
        <mxCell id="y5fUheF3tUzOyBfFli7F-123" value="Nombre" style="ellipse;whiteSpace=wrap;html=1;align=center;" vertex="1" parent="1">
          <mxGeometry x="790" y="750" width="100" height="40" as="geometry" />
        </mxCell>
        <mxCell id="y5fUheF3tUzOyBfFli7F-137" style="edgeStyle=orthogonalEdgeStyle;rounded=0;orthogonalLoop=1;jettySize=auto;html=1;entryX=1;entryY=0.5;entryDx=0;entryDy=0;" edge="1" parent="1" source="y5fUheF3tUzOyBfFli7F-125" target="y5fUheF3tUzOyBfFli7F-97">
          <mxGeometry relative="1" as="geometry" />
        </mxCell>
        <mxCell id="y5fUheF3tUzOyBfFli7F-125" value="Actuan" style="shape=rhombus;perimeter=rhombusPerimeter;whiteSpace=wrap;html=1;align=center;" vertex="1" parent="1">
          <mxGeometry x="641" y="820" width="120" height="60" as="geometry" />
        </mxCell>
        <mxCell id="y5fUheF3tUzOyBfFli7F-126" value="ID" style="ellipse;whiteSpace=wrap;html=1;align=center;fontStyle=4;" vertex="1" parent="1">
          <mxGeometry x="631" y="960" width="100" height="40" as="geometry" />
        </mxCell>
        <mxCell id="y5fUheF3tUzOyBfFli7F-127" value="Fecha de prestamo" style="ellipse;whiteSpace=wrap;html=1;align=center;" vertex="1" parent="1">
          <mxGeometry x="430" y="1020" width="100" height="40" as="geometry" />
        </mxCell>
        <mxCell id="y5fUheF3tUzOyBfFli7F-128" value="Correo" style="ellipse;whiteSpace=wrap;html=1;align=center;" vertex="1" parent="1">
          <mxGeometry x="81" y="1020" width="100" height="40" as="geometry" />
        </mxCell>
        <mxCell id="y5fUheF3tUzOyBfFli7F-130" value="Duracion" style="ellipse;whiteSpace=wrap;html=1;align=center;" vertex="1" parent="1">
          <mxGeometry x="314" y="790" width="100" height="40" as="geometry" />
        </mxCell>
        <mxCell id="y5fUheF3tUzOyBfFli7F-132" value="Genero" style="ellipse;whiteSpace=wrap;html=1;align=center;" vertex="1" parent="1">
          <mxGeometry x="314" y="630" width="100" height="40" as="geometry" />
        </mxCell>
        <mxCell id="y5fUheF3tUzOyBfFli7F-138" value="Nacionalidad" style="ellipse;whiteSpace=wrap;html=1;align=center;" vertex="1" parent="1">
          <mxGeometry x="919" y="680" width="100" height="40" as="geometry" />
        </mxCell>
        <mxCell id="y5fUheF3tUzOyBfFli7F-142" value="Fecha de entrega" style="ellipse;whiteSpace=wrap;html=1;align=center;" vertex="1" parent="1">
          <mxGeometry x="430" y="1060" width="100" height="40" as="geometry" />
        </mxCell>
        <mxCell id="y5fUheF3tUzOyBfFli7F-155" value="" style="edgeStyle=orthogonalEdgeStyle;rounded=0;orthogonalLoop=1;jettySize=auto;html=1;" edge="1" parent="1" source="y5fUheF3tUzOyBfFli7F-145" target="y5fUheF3tUzOyBfFli7F-154">
          <mxGeometry relative="1" as="geometry" />
        </mxCell>
        <mxCell id="y5fUheF3tUzOyBfFli7F-158" value="" style="edgeStyle=orthogonalEdgeStyle;rounded=0;orthogonalLoop=1;jettySize=auto;html=1;" edge="1" parent="1" source="y5fUheF3tUzOyBfFli7F-145" target="y5fUheF3tUzOyBfFli7F-151">
          <mxGeometry relative="1" as="geometry" />
        </mxCell>
        <mxCell id="y5fUheF3tUzOyBfFli7F-145" value="Premios" style="whiteSpace=wrap;html=1;align=center;" vertex="1" parent="1">
          <mxGeometry x="160" y="1140" width="100" height="40" as="geometry" />
        </mxCell>
        <mxCell id="y5fUheF3tUzOyBfFli7F-160" style="edgeStyle=orthogonalEdgeStyle;rounded=0;orthogonalLoop=1;jettySize=auto;html=1;entryX=0.5;entryY=0;entryDx=0;entryDy=0;" edge="1" parent="1" source="y5fUheF3tUzOyBfFli7F-146" target="y5fUheF3tUzOyBfFli7F-145">
          <mxGeometry relative="1" as="geometry" />
        </mxCell>
        <mxCell id="y5fUheF3tUzOyBfFli7F-161" style="edgeStyle=orthogonalEdgeStyle;rounded=0;orthogonalLoop=1;jettySize=auto;html=1;entryX=0.5;entryY=0;entryDx=0;entryDy=0;" edge="1" parent="1" source="y5fUheF3tUzOyBfFli7F-146" target="y5fUheF3tUzOyBfFli7F-148">
          <mxGeometry relative="1" as="geometry" />
        </mxCell>
        <mxCell id="y5fUheF3tUzOyBfFli7F-146" value="Reciben" style="shape=rhombus;perimeter=rhombusPerimeter;whiteSpace=wrap;html=1;align=center;" vertex="1" parent="1">
          <mxGeometry x="230" y="1030" width="120" height="60" as="geometry" />
        </mxCell>
        <mxCell id="y5fUheF3tUzOyBfFli7F-156" value="" style="edgeStyle=orthogonalEdgeStyle;rounded=0;orthogonalLoop=1;jettySize=auto;html=1;" edge="1" parent="1" source="y5fUheF3tUzOyBfFli7F-148" target="y5fUheF3tUzOyBfFli7F-153">
          <mxGeometry relative="1" as="geometry" />
        </mxCell>
        <mxCell id="y5fUheF3tUzOyBfFli7F-157" value="" style="edgeStyle=orthogonalEdgeStyle;rounded=0;orthogonalLoop=1;jettySize=auto;html=1;" edge="1" parent="1" source="y5fUheF3tUzOyBfFli7F-148" target="y5fUheF3tUzOyBfFli7F-152">
          <mxGeometry relative="1" as="geometry" />
        </mxCell>
        <mxCell id="y5fUheF3tUzOyBfFli7F-148" value="Sanciones" style="whiteSpace=wrap;html=1;align=center;" vertex="1" parent="1">
          <mxGeometry x="330" y="1140" width="100" height="40" as="geometry" />
        </mxCell>
        <mxCell id="y5fUheF3tUzOyBfFli7F-151" value="Nombre" style="ellipse;whiteSpace=wrap;html=1;align=center;" vertex="1" parent="1">
          <mxGeometry x="160" y="1200" width="100" height="40" as="geometry" />
        </mxCell>
        <mxCell id="y5fUheF3tUzOyBfFli7F-152" value="Nombre" style="ellipse;whiteSpace=wrap;html=1;align=center;" vertex="1" parent="1">
          <mxGeometry x="330" y="1200" width="100" height="40" as="geometry" />
        </mxCell>
        <mxCell id="y5fUheF3tUzOyBfFli7F-153" value="ID" style="ellipse;whiteSpace=wrap;html=1;align=center;fontStyle=4;" vertex="1" parent="1">
          <mxGeometry x="456.5" y="1140" width="100" height="40" as="geometry" />
        </mxCell>
        <mxCell id="y5fUheF3tUzOyBfFli7F-154" value="ID" style="ellipse;whiteSpace=wrap;html=1;align=center;fontStyle=4;" vertex="1" parent="1">
          <mxGeometry x="30" y="1140" width="100" height="40" as="geometry" />
        </mxCell>
        <mxCell id="y5fUheF3tUzOyBfFli7F-162" value="Costo" style="ellipse;whiteSpace=wrap;html=1;align=center;" vertex="1" parent="1">
          <mxGeometry x="580" y="1020" width="100" height="40" as="geometry" />
        </mxCell>
        <mxCell id="y5fUheF3tUzOyBfFli7F-164" style="edgeStyle=orthogonalEdgeStyle;rounded=0;orthogonalLoop=1;jettySize=auto;html=1;entryX=1;entryY=0.5;entryDx=0;entryDy=0;" edge="1" parent="1" source="y5fUheF3tUzOyBfFli7F-170" target="y5fUheF3tUzOyBfFli7F-171">
          <mxGeometry relative="1" as="geometry" />
        </mxCell>
        <mxCell id="y5fUheF3tUzOyBfFli7F-165" style="edgeStyle=orthogonalEdgeStyle;rounded=0;orthogonalLoop=1;jettySize=auto;html=1;entryX=1;entryY=0.5;entryDx=0;entryDy=0;" edge="1" parent="1" source="y5fUheF3tUzOyBfFli7F-170" target="y5fUheF3tUzOyBfFli7F-172">
          <mxGeometry relative="1" as="geometry" />
        </mxCell>
        <mxCell id="y5fUheF3tUzOyBfFli7F-166" style="edgeStyle=orthogonalEdgeStyle;rounded=0;orthogonalLoop=1;jettySize=auto;html=1;entryX=1;entryY=0.5;entryDx=0;entryDy=0;" edge="1" parent="1" source="y5fUheF3tUzOyBfFli7F-170" target="y5fUheF3tUzOyBfFli7F-179">
          <mxGeometry relative="1" as="geometry">
            <mxPoint x="191.5" y="1850" as="targetPoint" />
          </mxGeometry>
        </mxCell>
        <mxCell id="y5fUheF3tUzOyBfFli7F-167" value="" style="edgeStyle=orthogonalEdgeStyle;rounded=0;orthogonalLoop=1;jettySize=auto;html=1;" edge="1" parent="1" source="y5fUheF3tUzOyBfFli7F-170" target="y5fUheF3tUzOyBfFli7F-206">
          <mxGeometry relative="1" as="geometry" />
        </mxCell>
        <mxCell id="y5fUheF3tUzOyBfFli7F-168" style="edgeStyle=orthogonalEdgeStyle;rounded=0;orthogonalLoop=1;jettySize=auto;html=1;entryX=1;entryY=0.5;entryDx=0;entryDy=0;" edge="1" parent="1" source="y5fUheF3tUzOyBfFli7F-170" target="y5fUheF3tUzOyBfFli7F-228">
          <mxGeometry relative="1" as="geometry" />
        </mxCell>
        <mxCell id="y5fUheF3tUzOyBfFli7F-255" style="edgeStyle=orthogonalEdgeStyle;rounded=0;orthogonalLoop=1;jettySize=auto;html=1;entryX=1;entryY=0.5;entryDx=0;entryDy=0;" edge="1" parent="1" source="y5fUheF3tUzOyBfFli7F-170" target="y5fUheF3tUzOyBfFli7F-253">
          <mxGeometry relative="1" as="geometry" />
        </mxCell>
        <mxCell id="y5fUheF3tUzOyBfFli7F-256" style="edgeStyle=orthogonalEdgeStyle;rounded=0;orthogonalLoop=1;jettySize=auto;html=1;entryX=1;entryY=0.5;entryDx=0;entryDy=0;" edge="1" parent="1" source="y5fUheF3tUzOyBfFli7F-170" target="y5fUheF3tUzOyBfFli7F-247">
          <mxGeometry relative="1" as="geometry" />
        </mxCell>
        <mxCell id="y5fUheF3tUzOyBfFli7F-257" style="edgeStyle=orthogonalEdgeStyle;rounded=0;orthogonalLoop=1;jettySize=auto;html=1;entryX=1;entryY=0.5;entryDx=0;entryDy=0;" edge="1" parent="1" source="y5fUheF3tUzOyBfFli7F-170" target="y5fUheF3tUzOyBfFli7F-254">
          <mxGeometry relative="1" as="geometry" />
        </mxCell>
        <mxCell id="y5fUheF3tUzOyBfFli7F-170" value="Aprendices" style="whiteSpace=wrap;html=1;align=center;" vertex="1" parent="1">
          <mxGeometry x="240.5" y="1870" width="100" height="40" as="geometry" />
        </mxCell>
        <mxCell id="y5fUheF3tUzOyBfFli7F-171" value="Nombre" style="ellipse;whiteSpace=wrap;html=1;align=center;" vertex="1" parent="1">
          <mxGeometry x="81.5" y="1850" width="100" height="40" as="geometry" />
        </mxCell>
        <mxCell id="y5fUheF3tUzOyBfFli7F-172" value="Direccion" style="ellipse;whiteSpace=wrap;html=1;align=center;" vertex="1" parent="1">
          <mxGeometry x="81.5" y="1890" width="100" height="40" as="geometry" />
        </mxCell>
        <mxCell id="y5fUheF3tUzOyBfFli7F-179" value="ID" style="ellipse;whiteSpace=wrap;html=1;align=center;fontStyle=4;" vertex="1" parent="1">
          <mxGeometry x="81.5" y="1810" width="100" height="40" as="geometry" />
        </mxCell>
        <mxCell id="y5fUheF3tUzOyBfFli7F-180" style="edgeStyle=orthogonalEdgeStyle;rounded=0;orthogonalLoop=1;jettySize=auto;html=1;entryX=1;entryY=0.5;entryDx=0;entryDy=0;" edge="1" parent="1" source="y5fUheF3tUzOyBfFli7F-183" target="y5fUheF3tUzOyBfFli7F-186">
          <mxGeometry relative="1" as="geometry" />
        </mxCell>
        <mxCell id="y5fUheF3tUzOyBfFli7F-181" value="" style="edgeStyle=orthogonalEdgeStyle;rounded=0;orthogonalLoop=1;jettySize=auto;html=1;" edge="1" parent="1" source="y5fUheF3tUzOyBfFli7F-183" target="y5fUheF3tUzOyBfFli7F-187">
          <mxGeometry relative="1" as="geometry" />
        </mxCell>
        <mxCell id="y5fUheF3tUzOyBfFli7F-182" value="" style="edgeStyle=orthogonalEdgeStyle;rounded=0;orthogonalLoop=1;jettySize=auto;html=1;" edge="1" parent="1" source="y5fUheF3tUzOyBfFli7F-183" target="y5fUheF3tUzOyBfFli7F-185">
          <mxGeometry relative="1" as="geometry" />
        </mxCell>
        <mxCell id="y5fUheF3tUzOyBfFli7F-183" value="Centro de formacion" style="whiteSpace=wrap;html=1;align=center;" vertex="1" parent="1">
          <mxGeometry x="501" y="1470" width="100" height="40" as="geometry" />
        </mxCell>
        <mxCell id="y5fUheF3tUzOyBfFli7F-184" value="" style="edgeStyle=orthogonalEdgeStyle;rounded=0;orthogonalLoop=1;jettySize=auto;html=1;" edge="1" parent="1" source="y5fUheF3tUzOyBfFli7F-185" target="y5fUheF3tUzOyBfFli7F-194">
          <mxGeometry relative="1" as="geometry" />
        </mxCell>
        <mxCell id="y5fUheF3tUzOyBfFli7F-185" value="Tiene" style="shape=rhombus;perimeter=rhombusPerimeter;whiteSpace=wrap;html=1;align=center;" vertex="1" parent="1">
          <mxGeometry x="491" y="1550" width="120" height="60" as="geometry" />
        </mxCell>
        <mxCell id="y5fUheF3tUzOyBfFli7F-186" value="NIT" style="ellipse;whiteSpace=wrap;html=1;align=center;fontStyle=4;" vertex="1" parent="1">
          <mxGeometry x="365" y="1470" width="100" height="40" as="geometry" />
        </mxCell>
        <mxCell id="y5fUheF3tUzOyBfFli7F-187" value="Nombre" style="ellipse;whiteSpace=wrap;html=1;align=center;" vertex="1" parent="1">
          <mxGeometry x="500" y="1400" width="100" height="40" as="geometry" />
        </mxCell>
        <mxCell id="y5fUheF3tUzOyBfFli7F-188" style="edgeStyle=orthogonalEdgeStyle;rounded=0;orthogonalLoop=1;jettySize=auto;html=1;entryX=1;entryY=0.5;entryDx=0;entryDy=0;" edge="1" parent="1" source="y5fUheF3tUzOyBfFli7F-194" target="y5fUheF3tUzOyBfFli7F-203">
          <mxGeometry relative="1" as="geometry" />
        </mxCell>
        <mxCell id="y5fUheF3tUzOyBfFli7F-189" style="edgeStyle=orthogonalEdgeStyle;rounded=0;orthogonalLoop=1;jettySize=auto;html=1;entryX=1;entryY=0.5;entryDx=0;entryDy=0;" edge="1" parent="1" source="y5fUheF3tUzOyBfFli7F-194" target="y5fUheF3tUzOyBfFli7F-204">
          <mxGeometry relative="1" as="geometry" />
        </mxCell>
        <mxCell id="y5fUheF3tUzOyBfFli7F-191" style="edgeStyle=orthogonalEdgeStyle;rounded=0;orthogonalLoop=1;jettySize=auto;html=1;entryX=1;entryY=0.5;entryDx=0;entryDy=0;" edge="1" parent="1" source="y5fUheF3tUzOyBfFli7F-194" target="y5fUheF3tUzOyBfFli7F-214">
          <mxGeometry relative="1" as="geometry">
            <Array as="points">
              <mxPoint x="480" y="1660" />
              <mxPoint x="480" y="1760" />
            </Array>
          </mxGeometry>
        </mxCell>
        <mxCell id="y5fUheF3tUzOyBfFli7F-194" value="Cursos" style="whiteSpace=wrap;html=1;align=center;" vertex="1" parent="1">
          <mxGeometry x="500" y="1640" width="100" height="40" as="geometry" />
        </mxCell>
        <mxCell id="y5fUheF3tUzOyBfFli7F-195" value="" style="edgeStyle=orthogonalEdgeStyle;rounded=0;orthogonalLoop=1;jettySize=auto;html=1;" edge="1" parent="1" source="y5fUheF3tUzOyBfFli7F-199" target="y5fUheF3tUzOyBfFli7F-201">
          <mxGeometry relative="1" as="geometry" />
        </mxCell>
        <mxCell id="y5fUheF3tUzOyBfFli7F-196" value="" style="edgeStyle=orthogonalEdgeStyle;rounded=0;orthogonalLoop=1;jettySize=auto;html=1;" edge="1" parent="1" source="y5fUheF3tUzOyBfFli7F-199" target="y5fUheF3tUzOyBfFli7F-223">
          <mxGeometry relative="1" as="geometry" />
        </mxCell>
        <mxCell id="y5fUheF3tUzOyBfFli7F-197" value="" style="edgeStyle=orthogonalEdgeStyle;rounded=0;orthogonalLoop=1;jettySize=auto;html=1;" edge="1" parent="1" source="y5fUheF3tUzOyBfFli7F-199" target="y5fUheF3tUzOyBfFli7F-222">
          <mxGeometry relative="1" as="geometry" />
        </mxCell>
        <mxCell id="y5fUheF3tUzOyBfFli7F-261" style="edgeStyle=orthogonalEdgeStyle;rounded=0;orthogonalLoop=1;jettySize=auto;html=1;entryX=1;entryY=0.5;entryDx=0;entryDy=0;" edge="1" parent="1" source="y5fUheF3tUzOyBfFli7F-199" target="y5fUheF3tUzOyBfFli7F-225">
          <mxGeometry relative="1" as="geometry">
            <Array as="points">
              <mxPoint x="840" y="1660" />
            </Array>
          </mxGeometry>
        </mxCell>
        <mxCell id="y5fUheF3tUzOyBfFli7F-199" value="Profesores" style="whiteSpace=wrap;html=1;align=center;" vertex="1" parent="1">
          <mxGeometry x="790" y="1570" width="100" height="40" as="geometry" />
        </mxCell>
        <mxCell id="y5fUheF3tUzOyBfFli7F-259" value="" style="edgeStyle=orthogonalEdgeStyle;rounded=0;orthogonalLoop=1;jettySize=auto;html=1;" edge="1" parent="1" source="y5fUheF3tUzOyBfFli7F-201" target="y5fUheF3tUzOyBfFli7F-183">
          <mxGeometry relative="1" as="geometry" />
        </mxCell>
        <mxCell id="y5fUheF3tUzOyBfFli7F-201" value="Pertenecen" style="shape=rhombus;perimeter=rhombusPerimeter;whiteSpace=wrap;html=1;align=center;" vertex="1" parent="1">
          <mxGeometry x="650" y="1460" width="120" height="60" as="geometry" />
        </mxCell>
        <mxCell id="y5fUheF3tUzOyBfFli7F-203" value="Titulo" style="ellipse;whiteSpace=wrap;html=1;align=center;" vertex="1" parent="1">
          <mxGeometry x="314" y="1640" width="100" height="40" as="geometry" />
        </mxCell>
        <mxCell id="y5fUheF3tUzOyBfFli7F-204" value="Codigo" style="ellipse;whiteSpace=wrap;html=1;align=center;fontStyle=4;" vertex="1" parent="1">
          <mxGeometry x="314" y="1600" width="100" height="40" as="geometry" />
        </mxCell>
        <mxCell id="y5fUheF3tUzOyBfFli7F-205" value="" style="edgeStyle=orthogonalEdgeStyle;rounded=0;orthogonalLoop=1;jettySize=auto;html=1;entryX=0.5;entryY=1;entryDx=0;entryDy=0;" edge="1" parent="1" source="y5fUheF3tUzOyBfFli7F-206" target="y5fUheF3tUzOyBfFli7F-194">
          <mxGeometry relative="1" as="geometry">
            <mxPoint x="501" y="1870" as="targetPoint" />
          </mxGeometry>
        </mxCell>
        <mxCell id="y5fUheF3tUzOyBfFli7F-206" value="Realizan" style="shape=rhombus;perimeter=rhombusPerimeter;whiteSpace=wrap;html=1;align=center;" vertex="1" parent="1">
          <mxGeometry x="490" y="1860" width="120" height="60" as="geometry" />
        </mxCell>
        <mxCell id="y5fUheF3tUzOyBfFli7F-213" value="" style="edgeStyle=orthogonalEdgeStyle;rounded=0;orthogonalLoop=1;jettySize=auto;html=1;" edge="1" parent="1" source="y5fUheF3tUzOyBfFli7F-214" target="y5fUheF3tUzOyBfFli7F-218">
          <mxGeometry relative="1" as="geometry" />
        </mxCell>
        <mxCell id="y5fUheF3tUzOyBfFli7F-214" value="Tiene" style="shape=rhombus;perimeter=rhombusPerimeter;whiteSpace=wrap;html=1;align=center;" vertex="1" parent="1">
          <mxGeometry x="301.5" y="1730" width="120" height="60" as="geometry" />
        </mxCell>
        <mxCell id="y5fUheF3tUzOyBfFli7F-215" value="" style="edgeStyle=orthogonalEdgeStyle;rounded=0;orthogonalLoop=1;jettySize=auto;html=1;" edge="1" parent="1" source="y5fUheF3tUzOyBfFli7F-218" target="y5fUheF3tUzOyBfFli7F-219">
          <mxGeometry relative="1" as="geometry" />
        </mxCell>
        <mxCell id="y5fUheF3tUzOyBfFli7F-216" value="" style="edgeStyle=orthogonalEdgeStyle;rounded=0;orthogonalLoop=1;jettySize=auto;html=1;" edge="1" parent="1" source="y5fUheF3tUzOyBfFli7F-218" target="y5fUheF3tUzOyBfFli7F-220">
          <mxGeometry relative="1" as="geometry" />
        </mxCell>
        <mxCell id="y5fUheF3tUzOyBfFli7F-217" style="edgeStyle=orthogonalEdgeStyle;rounded=0;orthogonalLoop=1;jettySize=auto;html=1;entryX=0.5;entryY=1;entryDx=0;entryDy=0;" edge="1" parent="1" source="y5fUheF3tUzOyBfFli7F-218" target="y5fUheF3tUzOyBfFli7F-221">
          <mxGeometry relative="1" as="geometry" />
        </mxCell>
        <mxCell id="y5fUheF3tUzOyBfFli7F-218" value="Formato" style="whiteSpace=wrap;html=1;align=center;" vertex="1" parent="1">
          <mxGeometry x="161" y="1740" width="100" height="40" as="geometry" />
        </mxCell>
        <mxCell id="y5fUheF3tUzOyBfFli7F-219" value="&lt;span style=&quot;border-bottom: 1px dotted&quot;&gt;ID&lt;/span&gt;" style="ellipse;whiteSpace=wrap;html=1;align=center;" vertex="1" parent="1">
          <mxGeometry x="40" y="1740" width="100" height="40" as="geometry" />
        </mxCell>
        <mxCell id="y5fUheF3tUzOyBfFli7F-220" value="Nombre" style="ellipse;whiteSpace=wrap;html=1;align=center;" vertex="1" parent="1">
          <mxGeometry x="207.5" y="1660" width="100" height="40" as="geometry" />
        </mxCell>
        <mxCell id="y5fUheF3tUzOyBfFli7F-221" value="Tiempo de prestamo" style="ellipse;whiteSpace=wrap;html=1;align=center;" vertex="1" parent="1">
          <mxGeometry x="107.5" y="1660" width="100" height="40" as="geometry" />
        </mxCell>
        <mxCell id="y5fUheF3tUzOyBfFli7F-222" value="ID" style="ellipse;whiteSpace=wrap;html=1;align=center;fontStyle=4;" vertex="1" parent="1">
          <mxGeometry x="790" y="1500" width="100" height="40" as="geometry" />
        </mxCell>
        <mxCell id="y5fUheF3tUzOyBfFli7F-223" value="Nombre" style="ellipse;whiteSpace=wrap;html=1;align=center;" vertex="1" parent="1">
          <mxGeometry x="920" y="1570" width="100" height="40" as="geometry" />
        </mxCell>
        <mxCell id="y5fUheF3tUzOyBfFli7F-224" style="edgeStyle=orthogonalEdgeStyle;rounded=0;orthogonalLoop=1;jettySize=auto;html=1;entryX=1;entryY=0.5;entryDx=0;entryDy=0;" edge="1" parent="1" source="y5fUheF3tUzOyBfFli7F-225" target="y5fUheF3tUzOyBfFli7F-194">
          <mxGeometry relative="1" as="geometry" />
        </mxCell>
        <mxCell id="y5fUheF3tUzOyBfFli7F-225" value="Dicta" style="shape=rhombus;perimeter=rhombusPerimeter;whiteSpace=wrap;html=1;align=center;" vertex="1" parent="1">
          <mxGeometry x="650" y="1630" width="120" height="60" as="geometry" />
        </mxCell>
        <mxCell id="y5fUheF3tUzOyBfFli7F-228" value="Correo" style="ellipse;whiteSpace=wrap;html=1;align=center;" vertex="1" parent="1">
          <mxGeometry x="81.5" y="1930" width="100" height="40" as="geometry" />
        </mxCell>
        <mxCell id="y5fUheF3tUzOyBfFli7F-263" style="edgeStyle=orthogonalEdgeStyle;rounded=0;orthogonalLoop=1;jettySize=auto;html=1;entryX=0.5;entryY=1;entryDx=0;entryDy=0;" edge="1" parent="1" source="y5fUheF3tUzOyBfFli7F-238" target="y5fUheF3tUzOyBfFli7F-170">
          <mxGeometry relative="1" as="geometry" />
        </mxCell>
        <mxCell id="y5fUheF3tUzOyBfFli7F-238" value="Patrocina" style="shape=rhombus;perimeter=rhombusPerimeter;whiteSpace=wrap;html=1;align=center;" vertex="1" parent="1">
          <mxGeometry x="230" y="1990" width="120" height="60" as="geometry" />
        </mxCell>
        <mxCell id="y5fUheF3tUzOyBfFli7F-239" value="" style="edgeStyle=orthogonalEdgeStyle;rounded=0;orthogonalLoop=1;jettySize=auto;html=1;" edge="1" parent="1" source="y5fUheF3tUzOyBfFli7F-241" target="y5fUheF3tUzOyBfFli7F-244">
          <mxGeometry relative="1" as="geometry" />
        </mxCell>
        <mxCell id="y5fUheF3tUzOyBfFli7F-240" value="" style="edgeStyle=orthogonalEdgeStyle;rounded=0;orthogonalLoop=1;jettySize=auto;html=1;" edge="1" parent="1" source="y5fUheF3tUzOyBfFli7F-241" target="y5fUheF3tUzOyBfFli7F-243">
          <mxGeometry relative="1" as="geometry" />
        </mxCell>
        <mxCell id="y5fUheF3tUzOyBfFli7F-264" value="" style="edgeStyle=orthogonalEdgeStyle;rounded=0;orthogonalLoop=1;jettySize=auto;html=1;" edge="1" parent="1" source="y5fUheF3tUzOyBfFli7F-241" target="y5fUheF3tUzOyBfFli7F-238">
          <mxGeometry relative="1" as="geometry" />
        </mxCell>
        <mxCell id="y5fUheF3tUzOyBfFli7F-267" style="edgeStyle=orthogonalEdgeStyle;rounded=0;orthogonalLoop=1;jettySize=auto;html=1;entryX=1;entryY=0.5;entryDx=0;entryDy=0;" edge="1" parent="1" source="y5fUheF3tUzOyBfFli7F-241" target="y5fUheF3tUzOyBfFli7F-266">
          <mxGeometry relative="1" as="geometry" />
        </mxCell>
        <mxCell id="y5fUheF3tUzOyBfFli7F-268" style="edgeStyle=orthogonalEdgeStyle;rounded=0;orthogonalLoop=1;jettySize=auto;html=1;entryX=1;entryY=0.5;entryDx=0;entryDy=0;" edge="1" parent="1" source="y5fUheF3tUzOyBfFli7F-241" target="y5fUheF3tUzOyBfFli7F-265">
          <mxGeometry relative="1" as="geometry" />
        </mxCell>
        <mxCell id="y5fUheF3tUzOyBfFli7F-241" value="Empresa" style="whiteSpace=wrap;html=1;align=center;" vertex="1" parent="1">
          <mxGeometry x="240" y="2160" width="100" height="40" as="geometry" />
        </mxCell>
        <mxCell id="y5fUheF3tUzOyBfFli7F-243" value="Nombre" style="ellipse;whiteSpace=wrap;html=1;align=center;" vertex="1" parent="1">
          <mxGeometry x="100" y="2160" width="100" height="40" as="geometry" />
        </mxCell>
        <mxCell id="y5fUheF3tUzOyBfFli7F-244" value="NiIT" style="ellipse;whiteSpace=wrap;html=1;align=center;fontStyle=4;" vertex="1" parent="1">
          <mxGeometry x="381" y="2160" width="100" height="40" as="geometry" />
        </mxCell>
        <mxCell id="y5fUheF3tUzOyBfFli7F-247" value="Fecha de nacimiento" style="ellipse;whiteSpace=wrap;html=1;align=center;" vertex="1" parent="1">
          <mxGeometry x="81.5" y="1970" width="100" height="40" as="geometry" />
        </mxCell>
        <mxCell id="y5fUheF3tUzOyBfFli7F-253" value="Estrato" style="ellipse;whiteSpace=wrap;html=1;align=center;" vertex="1" parent="1">
          <mxGeometry x="81.5" y="2010" width="100" height="40" as="geometry" />
        </mxCell>
        <mxCell id="y5fUheF3tUzOyBfFli7F-254" value="Telefono" style="ellipse;whiteSpace=wrap;html=1;align=center;" vertex="1" parent="1">
          <mxGeometry x="81.5" y="2050" width="100" height="40" as="geometry" />
        </mxCell>
        <mxCell id="y5fUheF3tUzOyBfFli7F-265" value="Telefono" style="ellipse;whiteSpace=wrap;html=1;align=center;" vertex="1" parent="1">
          <mxGeometry x="100" y="2240" width="100" height="40" as="geometry" />
        </mxCell>
        <mxCell id="y5fUheF3tUzOyBfFli7F-266" value="Direccion" style="ellipse;whiteSpace=wrap;html=1;align=center;" vertex="1" parent="1">
          <mxGeometry x="100" y="2200" width="100" height="40" as="geometry" />
        </mxCell>
        <mxCell id="y5fUheF3tUzOyBfFli7F-275" value="" style="edgeStyle=orthogonalEdgeStyle;rounded=0;orthogonalLoop=1;jettySize=auto;html=1;" edge="1" parent="1" source="y5fUheF3tUzOyBfFli7F-270" target="y5fUheF3tUzOyBfFli7F-273">
          <mxGeometry relative="1" as="geometry" />
        </mxCell>
        <mxCell id="y5fUheF3tUzOyBfFli7F-276" style="edgeStyle=orthogonalEdgeStyle;rounded=0;orthogonalLoop=1;jettySize=auto;html=1;entryX=0.5;entryY=1;entryDx=0;entryDy=0;" edge="1" parent="1" source="y5fUheF3tUzOyBfFli7F-270" target="y5fUheF3tUzOyBfFli7F-274">
          <mxGeometry relative="1" as="geometry" />
        </mxCell>
        <mxCell id="y5fUheF3tUzOyBfFli7F-277" style="edgeStyle=orthogonalEdgeStyle;rounded=0;orthogonalLoop=1;jettySize=auto;html=1;entryX=0.5;entryY=1;entryDx=0;entryDy=0;" edge="1" parent="1" source="y5fUheF3tUzOyBfFli7F-270" target="y5fUheF3tUzOyBfFli7F-272">
          <mxGeometry relative="1" as="geometry" />
        </mxCell>
        <mxCell id="y5fUheF3tUzOyBfFli7F-278" style="edgeStyle=orthogonalEdgeStyle;rounded=0;orthogonalLoop=1;jettySize=auto;html=1;entryX=0.5;entryY=0;entryDx=0;entryDy=0;" edge="1" parent="1" source="y5fUheF3tUzOyBfFli7F-270" target="y5fUheF3tUzOyBfFli7F-283">
          <mxGeometry relative="1" as="geometry">
            <mxPoint x="551" y="2590" as="targetPoint" />
          </mxGeometry>
        </mxCell>
        <mxCell id="y5fUheF3tUzOyBfFli7F-279" style="edgeStyle=orthogonalEdgeStyle;rounded=0;orthogonalLoop=1;jettySize=auto;html=1;entryX=0.5;entryY=0;entryDx=0;entryDy=0;" edge="1" parent="1" source="y5fUheF3tUzOyBfFli7F-270" target="y5fUheF3tUzOyBfFli7F-282">
          <mxGeometry relative="1" as="geometry">
            <mxPoint x="920" y="2590" as="targetPoint" />
          </mxGeometry>
        </mxCell>
        <mxCell id="y5fUheF3tUzOyBfFli7F-287" style="edgeStyle=orthogonalEdgeStyle;rounded=0;orthogonalLoop=1;jettySize=auto;html=1;entryX=0.5;entryY=0;entryDx=0;entryDy=0;" edge="1" parent="1" source="y5fUheF3tUzOyBfFli7F-270" target="y5fUheF3tUzOyBfFli7F-286">
          <mxGeometry relative="1" as="geometry" />
        </mxCell>
        <mxCell id="y5fUheF3tUzOyBfFli7F-270" value="Cliente" style="whiteSpace=wrap;html=1;align=center;" vertex="1" parent="1">
          <mxGeometry x="690" y="2500" width="100" height="40" as="geometry" />
        </mxCell>
        <mxCell id="y5fUheF3tUzOyBfFli7F-272" value="Codigo" style="ellipse;whiteSpace=wrap;html=1;align=center;fontStyle=4;" vertex="1" parent="1">
          <mxGeometry x="790" y="2420" width="100" height="40" as="geometry" />
        </mxCell>
        <mxCell id="y5fUheF3tUzOyBfFli7F-273" value="Nombre" style="ellipse;whiteSpace=wrap;html=1;align=center;" vertex="1" parent="1">
          <mxGeometry x="690" y="2420" width="100" height="40" as="geometry" />
        </mxCell>
        <mxCell id="y5fUheF3tUzOyBfFli7F-274" value="Direccion" style="ellipse;whiteSpace=wrap;html=1;align=center;" vertex="1" parent="1">
          <mxGeometry x="590" y="2420" width="100" height="40" as="geometry" />
        </mxCell>
        <mxCell id="y5fUheF3tUzOyBfFli7F-280" value="Genero" style="ellipse;whiteSpace=wrap;html=1;align=center;" vertex="1" parent="1">
          <mxGeometry x="580" y="2660" width="100" height="40" as="geometry" />
        </mxCell>
        <mxCell id="y5fUheF3tUzOyBfFli7F-281" value="Fecha de nacimiento" style="ellipse;whiteSpace=wrap;html=1;align=center;" vertex="1" parent="1">
          <mxGeometry x="430" y="2660" width="100" height="40" as="geometry" />
        </mxCell>
        <mxCell id="y5fUheF3tUzOyBfFli7F-291" value="" style="edgeStyle=orthogonalEdgeStyle;rounded=0;orthogonalLoop=1;jettySize=auto;html=1;" edge="1" parent="1" source="y5fUheF3tUzOyBfFli7F-282" target="y5fUheF3tUzOyBfFli7F-288">
          <mxGeometry relative="1" as="geometry" />
        </mxCell>
        <mxCell id="y5fUheF3tUzOyBfFli7F-298" style="edgeStyle=orthogonalEdgeStyle;rounded=0;orthogonalLoop=1;jettySize=auto;html=1;entryX=1;entryY=0.5;entryDx=0;entryDy=0;" edge="1" parent="1" source="y5fUheF3tUzOyBfFli7F-282" target="y5fUheF3tUzOyBfFli7F-294">
          <mxGeometry relative="1" as="geometry" />
        </mxCell>
        <mxCell id="y5fUheF3tUzOyBfFli7F-299" style="edgeStyle=orthogonalEdgeStyle;rounded=0;orthogonalLoop=1;jettySize=auto;html=1;entryX=0;entryY=0.5;entryDx=0;entryDy=0;" edge="1" parent="1" source="y5fUheF3tUzOyBfFli7F-282" target="y5fUheF3tUzOyBfFli7F-293">
          <mxGeometry relative="1" as="geometry" />
        </mxCell>
        <mxCell id="y5fUheF3tUzOyBfFli7F-300" style="edgeStyle=orthogonalEdgeStyle;rounded=0;orthogonalLoop=1;jettySize=auto;html=1;entryX=0.5;entryY=0;entryDx=0;entryDy=0;" edge="1" parent="1" source="y5fUheF3tUzOyBfFli7F-282" target="y5fUheF3tUzOyBfFli7F-292">
          <mxGeometry relative="1" as="geometry" />
        </mxCell>
        <mxCell id="y5fUheF3tUzOyBfFli7F-282" value="Empresa" style="shape=ext;margin=3;double=1;whiteSpace=wrap;html=1;align=center;" vertex="1" parent="1">
          <mxGeometry x="890" y="2590" width="100" height="40" as="geometry" />
        </mxCell>
        <mxCell id="y5fUheF3tUzOyBfFli7F-301" style="edgeStyle=orthogonalEdgeStyle;rounded=0;orthogonalLoop=1;jettySize=auto;html=1;entryX=0.5;entryY=0;entryDx=0;entryDy=0;" edge="1" parent="1" source="y5fUheF3tUzOyBfFli7F-283" target="y5fUheF3tUzOyBfFli7F-289">
          <mxGeometry relative="1" as="geometry" />
        </mxCell>
        <mxCell id="y5fUheF3tUzOyBfFli7F-302" style="edgeStyle=orthogonalEdgeStyle;rounded=0;orthogonalLoop=1;jettySize=auto;html=1;entryX=0;entryY=0.5;entryDx=0;entryDy=0;" edge="1" parent="1" source="y5fUheF3tUzOyBfFli7F-283" target="y5fUheF3tUzOyBfFli7F-280">
          <mxGeometry relative="1" as="geometry" />
        </mxCell>
        <mxCell id="y5fUheF3tUzOyBfFli7F-303" style="edgeStyle=orthogonalEdgeStyle;rounded=0;orthogonalLoop=1;jettySize=auto;html=1;entryX=1;entryY=0.5;entryDx=0;entryDy=0;" edge="1" parent="1" source="y5fUheF3tUzOyBfFli7F-283" target="y5fUheF3tUzOyBfFli7F-281">
          <mxGeometry relative="1" as="geometry" />
        </mxCell>
        <mxCell id="y5fUheF3tUzOyBfFli7F-283" value="Persona" style="shape=ext;margin=3;double=1;whiteSpace=wrap;html=1;align=center;" vertex="1" parent="1">
          <mxGeometry x="501" y="2580" width="100" height="40" as="geometry" />
        </mxCell>
        <mxCell id="y5fUheF3tUzOyBfFli7F-305" value="" style="edgeStyle=orthogonalEdgeStyle;rounded=0;orthogonalLoop=1;jettySize=auto;html=1;entryX=0.5;entryY=0;entryDx=0;entryDy=0;" edge="1" parent="1" source="y5fUheF3tUzOyBfFli7F-286" target="y5fUheF3tUzOyBfFli7F-308">
          <mxGeometry relative="1" as="geometry">
            <mxPoint x="740" y="2820" as="targetPoint" />
          </mxGeometry>
        </mxCell>
        <mxCell id="y5fUheF3tUzOyBfFli7F-286" value="Posee" style="shape=rhombus;perimeter=rhombusPerimeter;whiteSpace=wrap;html=1;align=center;" vertex="1" parent="1">
          <mxGeometry x="680" y="2710" width="120" height="60" as="geometry" />
        </mxCell>
        <mxCell id="y5fUheF3tUzOyBfFli7F-288" value="id" style="ellipse;whiteSpace=wrap;html=1;align=center;fontStyle=4;" vertex="1" parent="1">
          <mxGeometry x="1020" y="2590" width="100" height="40" as="geometry" />
        </mxCell>
        <mxCell id="y5fUheF3tUzOyBfFli7F-289" value="id" style="ellipse;whiteSpace=wrap;html=1;align=center;fontStyle=4;" vertex="1" parent="1">
          <mxGeometry x="501" y="2700" width="100" height="40" as="geometry" />
        </mxCell>
        <mxCell id="y5fUheF3tUzOyBfFli7F-292" value="Numero de empleados" style="ellipse;whiteSpace=wrap;html=1;align=center;" vertex="1" parent="1">
          <mxGeometry x="890" y="2700" width="100" height="40" as="geometry" />
        </mxCell>
        <mxCell id="y5fUheF3tUzOyBfFli7F-293" value="Representante" style="ellipse;whiteSpace=wrap;html=1;align=center;" vertex="1" parent="1">
          <mxGeometry x="970" y="2660" width="100" height="40" as="geometry" />
        </mxCell>
        <mxCell id="y5fUheF3tUzOyBfFli7F-294" value="Tipo" style="ellipse;whiteSpace=wrap;html=1;align=center;" vertex="1" parent="1">
          <mxGeometry x="810" y="2660" width="100" height="40" as="geometry" />
        </mxCell>
        <mxCell id="y5fUheF3tUzOyBfFli7F-306" value="ID" style="ellipse;whiteSpace=wrap;html=1;align=center;fontStyle=4;" vertex="1" parent="1">
          <mxGeometry x="827" y="2820" width="100" height="40" as="geometry" />
        </mxCell>
        <mxCell id="y5fUheF3tUzOyBfFli7F-307" value="Tipo" style="ellipse;whiteSpace=wrap;html=1;align=center;" vertex="1" parent="1">
          <mxGeometry x="541" y="2820" width="100" height="40" as="geometry" />
        </mxCell>
        <mxCell id="y5fUheF3tUzOyBfFli7F-309" value="" style="edgeStyle=orthogonalEdgeStyle;rounded=0;orthogonalLoop=1;jettySize=auto;html=1;" edge="1" parent="1" source="y5fUheF3tUzOyBfFli7F-308" target="y5fUheF3tUzOyBfFli7F-307">
          <mxGeometry relative="1" as="geometry" />
        </mxCell>
        <mxCell id="y5fUheF3tUzOyBfFli7F-310" value="" style="edgeStyle=orthogonalEdgeStyle;rounded=0;orthogonalLoop=1;jettySize=auto;html=1;" edge="1" parent="1" source="y5fUheF3tUzOyBfFli7F-308" target="y5fUheF3tUzOyBfFli7F-306">
          <mxGeometry relative="1" as="geometry" />
        </mxCell>
        <mxCell id="bw6IiFWHcoLZit5uHxU_-3" style="edgeStyle=orthogonalEdgeStyle;rounded=0;orthogonalLoop=1;jettySize=auto;html=1;entryX=0;entryY=0.5;entryDx=0;entryDy=0;" edge="1" parent="1" source="y5fUheF3tUzOyBfFli7F-308" target="bw6IiFWHcoLZit5uHxU_-1">
          <mxGeometry relative="1" as="geometry" />
        </mxCell>
        <mxCell id="bw6IiFWHcoLZit5uHxU_-4" style="edgeStyle=orthogonalEdgeStyle;rounded=0;orthogonalLoop=1;jettySize=auto;html=1;entryX=1;entryY=0.5;entryDx=0;entryDy=0;" edge="1" parent="1" source="y5fUheF3tUzOyBfFli7F-308" target="bw6IiFWHcoLZit5uHxU_-2">
          <mxGeometry relative="1" as="geometry" />
        </mxCell>
        <mxCell id="y5fUheF3tUzOyBfFli7F-308" value="Cuenta" style="shape=ext;margin=3;double=1;whiteSpace=wrap;html=1;align=center;" vertex="1" parent="1">
          <mxGeometry x="690" y="2820" width="100" height="40" as="geometry" />
        </mxCell>
        <mxCell id="bw6IiFWHcoLZit5uHxU_-1" value="Saldo promedio" style="ellipse;whiteSpace=wrap;html=1;align=center;" vertex="1" parent="1">
          <mxGeometry x="830" y="2860" width="100" height="40" as="geometry" />
        </mxCell>
        <mxCell id="bw6IiFWHcoLZit5uHxU_-2" value="Saldo" style="ellipse;whiteSpace=wrap;html=1;align=center;" vertex="1" parent="1">
          <mxGeometry x="541" y="2860" width="100" height="40" as="geometry" />
        </mxCell>
        <mxCell id="bw6IiFWHcoLZit5uHxU_-62" value="" style="edgeStyle=orthogonalEdgeStyle;rounded=0;orthogonalLoop=1;jettySize=auto;html=1;" edge="1" parent="1" source="bw6IiFWHcoLZit5uHxU_-6" target="bw6IiFWHcoLZit5uHxU_-60">
          <mxGeometry relative="1" as="geometry" />
        </mxCell>
        <mxCell id="bw6IiFWHcoLZit5uHxU_-63" value="" style="edgeStyle=orthogonalEdgeStyle;rounded=0;orthogonalLoop=1;jettySize=auto;html=1;" edge="1" parent="1" source="bw6IiFWHcoLZit5uHxU_-6" target="bw6IiFWHcoLZit5uHxU_-59">
          <mxGeometry relative="1" as="geometry" />
        </mxCell>
        <mxCell id="bw6IiFWHcoLZit5uHxU_-64" style="edgeStyle=orthogonalEdgeStyle;rounded=0;orthogonalLoop=1;jettySize=auto;html=1;entryX=0.5;entryY=0;entryDx=0;entryDy=0;" edge="1" parent="1" source="bw6IiFWHcoLZit5uHxU_-6" target="bw6IiFWHcoLZit5uHxU_-58">
          <mxGeometry relative="1" as="geometry" />
        </mxCell>
        <mxCell id="bw6IiFWHcoLZit5uHxU_-65" style="edgeStyle=orthogonalEdgeStyle;rounded=0;orthogonalLoop=1;jettySize=auto;html=1;entryX=0.5;entryY=0;entryDx=0;entryDy=0;" edge="1" parent="1" source="bw6IiFWHcoLZit5uHxU_-6" target="bw6IiFWHcoLZit5uHxU_-57">
          <mxGeometry relative="1" as="geometry" />
        </mxCell>
        <mxCell id="bw6IiFWHcoLZit5uHxU_-66" value="" style="edgeStyle=orthogonalEdgeStyle;rounded=0;orthogonalLoop=1;jettySize=auto;html=1;" edge="1" parent="1" source="bw6IiFWHcoLZit5uHxU_-6" target="bw6IiFWHcoLZit5uHxU_-55">
          <mxGeometry relative="1" as="geometry" />
        </mxCell>
        <mxCell id="bw6IiFWHcoLZit5uHxU_-6" value="Sucursal" style="whiteSpace=wrap;html=1;align=center;" vertex="1" parent="1">
          <mxGeometry x="690" y="3050" width="100" height="40" as="geometry" />
        </mxCell>
        <mxCell id="bw6IiFWHcoLZit5uHxU_-7" value="Aprendices" style="whiteSpace=wrap;html=1;align=center;" vertex="1" parent="1">
          <mxGeometry x="240.5" y="1870" width="100" height="40" as="geometry" />
        </mxCell>
        <mxCell id="bw6IiFWHcoLZit5uHxU_-38" style="edgeStyle=orthogonalEdgeStyle;rounded=0;orthogonalLoop=1;jettySize=auto;html=1;entryX=1;entryY=0.5;entryDx=0;entryDy=0;" edge="1" parent="1" source="bw6IiFWHcoLZit5uHxU_-45" target="bw6IiFWHcoLZit5uHxU_-46">
          <mxGeometry relative="1" as="geometry" />
        </mxCell>
        <mxCell id="bw6IiFWHcoLZit5uHxU_-39" style="edgeStyle=orthogonalEdgeStyle;rounded=0;orthogonalLoop=1;jettySize=auto;html=1;entryX=1;entryY=0.5;entryDx=0;entryDy=0;" edge="1" parent="1" source="bw6IiFWHcoLZit5uHxU_-45" target="bw6IiFWHcoLZit5uHxU_-47">
          <mxGeometry relative="1" as="geometry" />
        </mxCell>
        <mxCell id="bw6IiFWHcoLZit5uHxU_-40" style="edgeStyle=orthogonalEdgeStyle;rounded=0;orthogonalLoop=1;jettySize=auto;html=1;entryX=1;entryY=0.5;entryDx=0;entryDy=0;" edge="1" parent="1" source="bw6IiFWHcoLZit5uHxU_-45" target="bw6IiFWHcoLZit5uHxU_-48">
          <mxGeometry relative="1" as="geometry">
            <mxPoint x="265" y="3030" as="targetPoint" />
          </mxGeometry>
        </mxCell>
        <mxCell id="bw6IiFWHcoLZit5uHxU_-43" style="edgeStyle=orthogonalEdgeStyle;rounded=0;orthogonalLoop=1;jettySize=auto;html=1;entryX=1;entryY=0.5;entryDx=0;entryDy=0;" edge="1" parent="1" source="bw6IiFWHcoLZit5uHxU_-45" target="bw6IiFWHcoLZit5uHxU_-50">
          <mxGeometry relative="1" as="geometry" />
        </mxCell>
        <mxCell id="bw6IiFWHcoLZit5uHxU_-68" value="" style="edgeStyle=orthogonalEdgeStyle;rounded=0;orthogonalLoop=1;jettySize=auto;html=1;" edge="1" parent="1" source="bw6IiFWHcoLZit5uHxU_-45" target="bw6IiFWHcoLZit5uHxU_-67">
          <mxGeometry relative="1" as="geometry" />
        </mxCell>
        <mxCell id="bw6IiFWHcoLZit5uHxU_-45" value="Empleados" style="whiteSpace=wrap;html=1;align=center;" vertex="1" parent="1">
          <mxGeometry x="314" y="3050" width="100" height="40" as="geometry" />
        </mxCell>
        <mxCell id="bw6IiFWHcoLZit5uHxU_-46" value="Nombre" style="ellipse;whiteSpace=wrap;html=1;align=center;" vertex="1" parent="1">
          <mxGeometry x="155" y="3030" width="100" height="40" as="geometry" />
        </mxCell>
        <mxCell id="bw6IiFWHcoLZit5uHxU_-47" value="Sexo" style="ellipse;whiteSpace=wrap;html=1;align=center;" vertex="1" parent="1">
          <mxGeometry x="155" y="3070" width="100" height="40" as="geometry" />
        </mxCell>
        <mxCell id="bw6IiFWHcoLZit5uHxU_-48" value="ID" style="ellipse;whiteSpace=wrap;html=1;align=center;fontStyle=4;" vertex="1" parent="1">
          <mxGeometry x="155" y="2990" width="100" height="40" as="geometry" />
        </mxCell>
        <mxCell id="bw6IiFWHcoLZit5uHxU_-50" value="Fecha de nacimiento" style="ellipse;whiteSpace=wrap;html=1;align=center;" vertex="1" parent="1">
          <mxGeometry x="155" y="3120" width="100" height="40" as="geometry" />
        </mxCell>
        <mxCell id="bw6IiFWHcoLZit5uHxU_-55" value="Id" style="ellipse;whiteSpace=wrap;html=1;align=center;fontStyle=4;" vertex="1" parent="1">
          <mxGeometry x="850" y="3050" width="100" height="40" as="geometry" />
        </mxCell>
        <mxCell id="bw6IiFWHcoLZit5uHxU_-57" value="Telefono" style="ellipse;whiteSpace=wrap;html=1;align=center;" vertex="1" parent="1">
          <mxGeometry x="590" y="3130" width="100" height="40" as="geometry" />
        </mxCell>
        <mxCell id="bw6IiFWHcoLZit5uHxU_-58" value="Cuidad" style="ellipse;whiteSpace=wrap;html=1;align=center;" vertex="1" parent="1">
          <mxGeometry x="790" y="3130" width="100" height="40" as="geometry" />
        </mxCell>
        <mxCell id="bw6IiFWHcoLZit5uHxU_-59" value="Direccion" style="ellipse;whiteSpace=wrap;html=1;align=center;" vertex="1" parent="1">
          <mxGeometry x="690" y="3130" width="100" height="40" as="geometry" />
        </mxCell>
        <mxCell id="bw6IiFWHcoLZit5uHxU_-61" value="" style="edgeStyle=orthogonalEdgeStyle;rounded=0;orthogonalLoop=1;jettySize=auto;html=1;" edge="1" parent="1" source="bw6IiFWHcoLZit5uHxU_-60" target="y5fUheF3tUzOyBfFli7F-308">
          <mxGeometry relative="1" as="geometry" />
        </mxCell>
        <mxCell id="bw6IiFWHcoLZit5uHxU_-60" value="Administra" style="shape=rhombus;perimeter=rhombusPerimeter;whiteSpace=wrap;html=1;align=center;" vertex="1" parent="1">
          <mxGeometry x="680" y="2923" width="120" height="60" as="geometry" />
        </mxCell>
        <mxCell id="bw6IiFWHcoLZit5uHxU_-69" value="" style="edgeStyle=orthogonalEdgeStyle;rounded=0;orthogonalLoop=1;jettySize=auto;html=1;" edge="1" parent="1" source="bw6IiFWHcoLZit5uHxU_-67" target="bw6IiFWHcoLZit5uHxU_-6">
          <mxGeometry relative="1" as="geometry" />
        </mxCell>
        <mxCell id="bw6IiFWHcoLZit5uHxU_-67" value="Trabajan" style="shape=rhombus;perimeter=rhombusPerimeter;whiteSpace=wrap;html=1;align=center;" vertex="1" parent="1">
          <mxGeometry x="500" y="3040" width="120" height="60" as="geometry" />
        </mxCell>
      </root>
    </mxGraphModel>
  </diagram>
</mxfile>
